<svg width="166" height="32" viewBox="0 0 166 32" fill="none" xmlns="http://www.w3.org/2000/svg">
<mask id="mask0_4029_180" style="mask-type:alpha" maskUnits="userSpaceOnUse" x="0" y="0" width="166" height="32">
<rect width="166" height="32" fill="#D9D9D9"/>
</mask>
<g mask="url(#mask0_4029_180)">
<rect x="0.0107422" y="0.0157471" width="32" height="32" rx="16" transform="rotate(0.019056 0.0107422 0.0157471)" fill="#ABEF5F"/>
<path d="M21.0071 11.0227L10.0034 22.019" stroke="#1C1C1C" stroke-width="1.5" stroke-linecap="round"/>
<path d="M15.0073 10.1523C15.0073 10.1523 20.6409 9.67927 21.4957 10.5345C22.3503 11.3897 21.8734 17.0231 21.8734 17.0231" stroke="#1C1C1C" stroke-width="1.5" stroke-linecap="round" stroke-linejoin="round"/>
<path d="M42.2541 28.0007L42.2617 4.96074L51.9897 4.96398C52.2137 4.96405 52.5124 4.97482 52.8857 4.99628C53.2697 5.00707 53.6111 5.03919 53.9097 5.09262C55.2856 5.30641 56.4108 5.76012 57.2852 6.45374C58.1704 7.14737 58.8207 8.02225 59.2364 9.07839C59.652 10.1239 59.8596 11.2919 59.8592 12.5826C59.8586 14.5133 59.378 16.1664 58.4176 17.5421C57.4571 18.9071 55.9528 19.7493 53.9047 20.0686L51.9847 20.196L46.6087 20.1942L46.6061 28.0022L42.2541 28.0007ZM55.2461 28.0051L50.7052 18.6276L55.1855 17.765L60.1741 28.0067L55.2461 28.0051ZM46.61 16.1302L51.794 16.1319C52.018 16.132 52.2634 16.1214 52.53 16.1002C52.7967 16.0789 53.0421 16.0363 53.2661 15.9724C53.8528 15.8126 54.3062 15.5461 54.6264 15.1729C54.9465 14.789 55.1653 14.3677 55.2828 13.9091C55.4109 13.4398 55.4751 12.9971 55.4752 12.5811C55.4754 12.1651 55.4115 11.7278 55.2836 11.2691C55.1665 10.7997 54.9479 10.3783 54.6281 10.0049C54.3082 9.62075 53.855 9.3486 53.2683 9.18841C53.0444 9.12433 52.799 9.08158 52.5324 9.06016C52.2657 9.03874 52.0204 9.02799 51.7964 9.02791L46.6124 9.02619L46.61 16.1302ZM64.0181 8.32798L64.0194 4.48798L68.3714 4.48943L68.3701 8.32943L64.0181 8.32798ZM64.0116 28.008L64.0173 10.728L68.3693 10.7294L68.3636 28.0094L64.0116 28.008ZM84.9363 28.0149L84.939 19.8549C84.9392 19.4603 84.918 18.9589 84.8755 18.3509C84.8331 17.7322 84.7 17.1135 84.4762 16.4948C84.2524 15.876 83.8845 15.3586 83.3727 14.9424C82.8715 14.5263 82.1569 14.318 81.2289 14.3177C80.8556 14.3176 80.4555 14.3761 80.0288 14.4933C79.6021 14.6105 79.202 14.8397 78.8286 15.1809C78.4552 15.5114 78.1457 16.002 77.9001 16.6526C77.6652 17.3032 77.5476 18.1671 77.5472 19.2445L75.0516 18.0596C75.0521 16.6943 75.3299 15.4144 75.8849 14.2199C76.44 13.0254 77.2723 12.0604 78.3819 11.3248C79.5021 10.5891 80.9102 10.2216 82.6062 10.2222C83.9609 10.2226 85.0648 10.4523 85.918 10.9113C86.7712 11.3702 87.4323 11.9518 87.9014 12.6559C88.3812 13.3601 88.7223 14.0962 88.9247 14.8643C89.1271 15.6217 89.2496 16.315 89.292 16.9444C89.3345 17.5737 89.3557 18.0324 89.3556 18.3204L89.3523 28.0164L84.9363 28.0149ZM73.1283 28.011L73.1341 10.731L77.0061 10.7323L77.0042 16.4603L77.5482 16.4605L77.5443 28.0125L73.1283 28.011ZM103.872 28.0212C102.677 28.2448 101.504 28.3404 100.352 28.3081C99.2107 28.2864 98.1867 28.0887 97.2802 27.715C96.3843 27.3307 95.7018 26.7172 95.2328 25.8744C94.8064 25.0849 94.5827 24.2848 94.5616 23.4741C94.5405 22.6528 94.5302 21.7248 94.5305 20.6901L94.5354 5.93813L98.8874 5.93958L98.8826 20.4356C98.8824 21.1076 98.8875 21.7156 98.898 22.2596C98.9192 22.7929 99.031 23.2196 99.2336 23.5397C99.6174 24.1478 100.231 24.4787 101.073 24.5323C101.916 24.5859 102.849 24.5436 103.873 24.4052L103.872 28.0212ZM91.5887 14.0971L91.5898 10.7371L103.878 10.7412L103.877 14.1012L91.5887 14.0971ZM114.786 28.5049C113.015 28.5043 111.453 28.1251 110.098 27.3673C108.755 26.5989 107.699 25.5478 106.931 24.2143C106.174 22.87 105.796 21.3339 105.797 19.6059C105.798 17.7179 106.171 16.0753 106.919 14.6782C107.666 13.2812 108.695 12.1988 110.008 11.4313C111.32 10.653 112.829 10.2642 114.536 10.2648C116.349 10.2654 117.891 10.6926 119.16 11.5463C120.429 12.4001 121.367 13.6004 121.974 15.1473C122.582 16.6941 122.795 18.5129 122.613 20.6035L118.309 20.602L118.309 19.002C118.31 17.242 118.027 15.9779 117.462 15.2098C116.908 14.4309 115.996 14.0413 114.727 14.0408C113.244 14.0404 112.151 14.4933 111.446 15.3998C110.753 16.2955 110.406 17.6234 110.405 19.3834C110.404 20.9941 110.751 22.2422 111.444 23.1278C112.147 24.0027 113.177 24.4403 114.531 24.4408C115.385 24.4411 116.115 24.2546 116.723 23.8815C117.332 23.5084 117.796 22.9699 118.116 22.266L122.468 23.5154C121.816 25.0939 120.787 26.3202 119.378 27.1944C117.981 28.0686 116.45 28.5054 114.786 28.5049ZM109.061 20.599L109.062 17.367L120.518 17.3708L120.517 20.6028L109.061 20.599ZM126.223 28.0287L126.229 10.7487L130.069 10.7499L130.067 14.9739L129.651 14.4298C129.876 13.8326 130.174 13.2886 130.548 12.7981C130.921 12.3076 131.38 11.9024 131.924 11.5826C132.34 11.3267 132.794 11.1295 133.284 10.991C133.775 10.8418 134.282 10.7513 134.805 10.7195C135.327 10.677 135.85 10.6879 136.373 10.752L136.371 14.816C135.891 14.6666 135.331 14.6184 134.691 14.6715C134.062 14.7139 133.491 14.8578 132.979 15.1029C132.467 15.3374 132.035 15.6519 131.683 16.0465C131.331 16.4304 131.064 16.8889 130.882 17.4222C130.701 17.9448 130.61 18.5368 130.61 19.1981L130.607 28.0301L126.223 28.0287ZM139.737 8.35316L139.738 4.51316L144.09 4.51461L144.089 8.35461L139.737 8.35316ZM139.73 28.0332L139.736 10.7532L144.088 10.7546L144.082 28.0346L139.73 28.0332ZM156.655 28.5188C154.916 28.5182 153.391 28.1284 152.079 27.3493C150.768 26.5702 149.744 25.4978 149.008 24.1322C148.283 22.756 147.921 21.1772 147.922 19.3959C147.923 17.5932 148.296 16.0093 149.044 14.6443C149.791 13.2685 150.82 12.1968 152.133 11.4293C153.445 10.6617 154.954 10.2782 156.661 10.2788C158.4 10.2794 159.925 10.6692 161.237 11.4483C162.559 12.2274 163.588 13.3051 164.324 14.6813C165.059 16.0469 165.427 17.6204 165.426 19.4017C165.425 21.1937 165.051 22.7776 164.304 24.1533C163.568 25.5184 162.538 26.5901 161.215 27.3683C159.903 28.1359 158.383 28.5194 156.655 28.5188ZM156.656 24.4548C158.054 24.4553 159.094 23.9863 159.777 23.0478C160.47 22.0987 160.817 20.8828 160.818 19.4002C160.818 17.8642 160.467 16.6374 159.763 15.7198C159.07 14.8023 158.036 14.3432 156.66 14.3428C155.71 14.3425 154.932 14.5555 154.323 14.982C153.715 15.4085 153.262 16.0003 152.963 16.7576C152.675 17.5148 152.53 18.3948 152.53 19.3974C152.529 20.9441 152.876 22.1762 153.569 23.0938C154.272 24.0007 155.302 24.4543 156.656 24.4548Z" fill="#E9E9E9"/>
</g>
</svg>
