<svg width="168" height="45" viewBox="0 0 168 45" fill="none" xmlns="http://www.w3.org/2000/svg">
<rect x="0.0106201" y="6.05225" width="32" height="32" rx="16" transform="rotate(0.019056 0.0106201 6.05225)" fill="#ABEF5F"/>
<path d="M21.007 17.0593L10.0033 28.0557" stroke="#1C1C1C" stroke-width="1.5" stroke-linecap="round"/>
<path d="M15.0073 16.1887C15.0073 16.1887 20.6409 15.7156 21.4957 16.5708C22.3503 17.426 21.8734 23.0594 21.8734 23.0594" stroke="#1C1C1C" stroke-width="1.5" stroke-linecap="round" stroke-linejoin="round"/>
<path d="M42.254 34.0374L42.2616 10.9974L51.9896 11.0006C52.2136 11.0007 52.5123 11.0114 52.8856 11.0329C53.2696 11.0437 53.6109 11.0758 53.9096 11.1292C55.2855 11.343 56.4107 11.7967 57.2851 12.4904C58.1702 13.184 58.8206 14.0589 59.2363 15.115C59.6519 16.1605 59.8595 17.3286 59.8591 18.6192C59.8584 20.5499 59.3779 22.2031 58.4174 23.5787C57.457 24.9438 55.9527 25.7859 53.9046 26.1052L51.9846 26.2326L46.6086 26.2308L46.606 34.0388L42.254 34.0374ZM55.246 34.0417L50.7051 24.6642L55.1854 23.8017L60.174 34.0433L55.246 34.0417ZM46.6099 22.1668L51.7939 22.1685C52.0179 22.1686 52.2632 22.158 52.5299 22.1368C52.7966 22.1155 53.0419 22.073 53.266 22.009C53.8527 21.8492 54.3061 21.5827 54.6262 21.2095C54.9464 20.8256 55.1652 20.4043 55.2826 19.9457C55.4108 19.4764 55.475 19.0338 55.4751 18.6178C55.4752 18.2018 55.4114 17.7644 55.2835 17.3057C55.1663 16.8363 54.9478 16.4149 54.6279 16.0415C54.3081 15.6574 53.8548 15.3852 53.2682 15.225C53.0442 15.161 52.7989 15.1182 52.5323 15.0968C52.2656 15.0754 52.0203 15.0646 51.7963 15.0645L46.6123 15.0628L46.6099 22.1668ZM64.018 14.3646L64.0193 10.5246L68.3713 10.526L68.37 14.366L64.018 14.3646ZM64.0115 34.0446L64.0172 16.7646L68.3692 16.766L68.3635 34.046L64.0115 34.0446ZM84.9362 34.0516L84.9389 25.8916C84.9391 25.4969 84.9179 24.9956 84.8754 24.3875C84.833 23.7689 84.6998 23.1501 84.476 22.5314C84.2522 21.9127 83.8844 21.3952 83.3726 20.979C82.8714 20.5629 82.1568 20.3546 81.2288 20.3543C80.8554 20.3542 80.4554 20.4127 80.0287 20.5299C79.602 20.6471 79.2019 20.8763 78.8285 21.2175C78.455 21.5481 78.1455 22.0386 77.9 22.6892C77.6651 23.3398 77.5475 24.2038 77.5471 25.2811L75.0515 24.0963C75.052 22.7309 75.3297 21.451 75.8848 20.2565C76.4399 19.0621 77.2722 18.097 78.3818 17.3614C79.502 16.6257 80.9101 16.2582 82.6061 16.2588C83.9608 16.2592 85.0647 16.4889 85.9179 16.9479C86.7711 17.4068 87.4322 17.9884 87.9013 18.6925C88.3811 19.3967 88.7222 20.1328 88.9246 20.9009C89.127 21.6583 89.2494 22.3517 89.2919 22.981C89.3343 23.6104 89.3555 24.069 89.3554 24.357L89.3522 34.053L84.9362 34.0516ZM73.1282 34.0476L73.134 16.7676L77.006 16.7689L77.0041 22.4969L77.5481 22.4971L77.5442 34.0491L73.1282 34.0476ZM103.872 34.0579C102.677 34.2815 101.504 34.3771 100.352 34.3447C99.2105 34.323 98.1866 34.1253 97.2801 33.7517C96.3842 33.3674 95.7017 32.7538 95.2327 31.911C94.8063 31.1215 94.5825 30.3214 94.5615 29.5108C94.5404 28.6894 94.5301 27.7614 94.5304 26.7267L94.5353 11.9747L98.8873 11.9762L98.8825 26.4722C98.8823 27.1442 98.8874 27.7522 98.8979 28.2962C98.919 28.8295 99.0309 29.2562 99.2334 29.5763C99.6172 30.1844 100.23 30.5153 101.073 30.5689C101.916 30.6225 102.849 30.5802 103.873 30.4419L103.872 34.0579ZM91.5886 20.1338L91.5897 16.7738L103.878 16.7779L103.877 20.1379L91.5886 20.1338ZM114.786 34.5415C113.015 34.5409 111.453 34.1617 110.098 33.4039C108.754 32.6355 107.699 31.5845 106.931 30.2509C106.174 28.9066 105.796 27.3705 105.797 25.6425C105.797 23.7545 106.171 22.112 106.918 20.7149C107.666 19.3178 108.695 18.2355 110.007 17.4679C111.32 16.6897 112.829 16.3008 114.536 16.3014C116.349 16.302 117.89 16.7292 119.159 17.5829C120.428 18.4367 121.367 19.637 121.974 21.1839C122.582 22.7307 122.794 24.5495 122.612 26.6401L118.308 26.6387L118.309 25.0387C118.31 23.2787 118.027 22.0146 117.462 21.2464C116.908 20.4675 115.996 20.0779 114.727 20.0775C113.244 20.077 112.15 20.5299 111.446 21.4364C110.753 22.3321 110.405 23.66 110.405 25.42C110.404 27.0307 110.751 28.2788 111.444 29.1644C112.147 30.0393 113.176 30.477 114.531 30.4774C115.384 30.4777 116.115 30.2913 116.723 29.9181C117.331 29.545 117.796 29.0065 118.116 28.3026L122.467 29.552C121.816 31.1305 120.787 32.3568 119.378 33.231C117.981 34.1052 116.45 34.542 114.786 34.5415ZM109.06 26.6356L109.062 23.4036L120.517 23.4074L120.516 26.6394L109.06 26.6356ZM126.223 34.0653L126.228 16.7853L130.068 16.7866L130.067 21.0106L129.651 20.4664C129.875 19.8692 130.174 19.3253 130.548 18.8347C130.921 18.3442 131.38 17.939 131.924 17.6192C132.34 17.3633 132.794 17.1661 133.284 17.0276C133.775 16.8785 134.282 16.788 134.804 16.7561C135.327 16.7137 135.85 16.7245 136.372 16.7887L136.371 20.8527C135.891 20.7032 135.331 20.655 134.691 20.7081C134.062 20.7506 133.491 20.8944 132.979 21.1395C132.467 21.374 132.035 21.6886 131.683 22.0831C131.331 22.467 131.064 22.9256 130.882 23.4588C130.701 23.9814 130.61 24.5734 130.61 25.2347L130.607 34.0667L126.223 34.0653ZM139.737 14.3898L139.738 10.5498L144.09 10.5512L144.089 14.3912L139.737 14.3898ZM139.73 34.0698L139.736 16.7898L144.088 16.7912L144.082 34.0712L139.73 34.0698ZM156.655 34.5554C154.916 34.5548 153.391 34.165 152.079 33.3859C150.767 32.6068 149.744 31.5344 149.008 30.1689C148.283 28.7926 147.921 27.2138 147.922 25.4325C147.922 23.6298 148.296 22.046 149.043 20.6809C149.791 19.3051 150.82 18.2335 152.132 17.4659C153.445 16.6983 154.954 16.3148 156.661 16.3154C158.4 16.316 159.925 16.7058 161.236 17.4849C162.559 18.264 163.588 19.3417 164.323 20.718C165.059 22.0835 165.426 23.657 165.426 25.4383C165.425 27.2303 165.051 28.8142 164.304 30.19C163.568 31.555 162.538 32.6267 161.215 33.4049C159.903 34.1725 158.383 34.556 156.655 34.5554ZM156.656 30.4914C158.053 30.4919 159.094 30.0229 159.777 29.0845C160.47 28.1353 160.817 26.9195 160.818 25.4368C160.818 23.9008 160.467 22.674 159.763 21.7564C159.07 20.8389 158.036 20.3799 156.66 20.3794C155.71 20.3791 154.931 20.5922 154.323 21.0186C153.715 21.4451 153.262 22.0369 152.963 22.7942C152.674 23.5514 152.53 24.4314 152.53 25.434C152.529 26.9807 152.876 28.2128 153.569 29.1304C154.272 30.0373 155.301 30.491 156.656 30.4914Z" fill="#212121"/>
</svg>
